# Blender v2.78 (sub 0) OBJ File: 'barrier_ultimate.blend'
# www.blender.org
o stick
v 1.106555 0.000000 0.000000
v 0.996970 0.000000 -0.480111
v 0.996970 0.015475 -0.480111
v 1.106555 0.015474 0.000000
v 0.689921 0.000000 -0.865136
v 0.689921 0.015475 -0.865136
v 0.246228 0.000000 -1.078807
v 0.246228 0.015475 -1.078807
v -0.246228 0.000000 -1.078807
v -0.246228 0.015475 -1.078807
v -0.689921 0.000000 -0.865136
v -0.689921 0.015475 -0.865136
v -0.996970 0.000000 -0.480111
v -0.996970 0.015475 -0.480111
v -1.106555 0.000000 0.000000
v -1.106555 0.015474 0.000000
v -0.996970 -0.000000 0.480111
v -0.996970 0.015474 0.480111
v -0.689921 -0.000000 0.865136
v -0.689921 0.015474 0.865136
v -0.246228 -0.000000 1.078807
v -0.246228 0.015474 1.078807
v 0.246228 -0.000000 1.078807
v 0.246228 0.015474 1.078807
v 0.689921 -0.000000 0.865136
v 0.689921 0.015474 0.865136
v 0.996970 -0.000000 0.480111
v 0.996970 0.015474 0.480111
v 0.363363 5.382308 -0.174984
v 0.251453 5.382308 -0.315317
v 0.089746 5.382308 -0.393192
v 0.363363 5.382308 0.174986
v -0.089746 5.382308 -0.393192
v -0.251453 5.382308 -0.315317
v -0.403313 5.382308 0.000001
v -0.363363 5.382308 -0.174984
v -0.363363 5.382308 0.174986
v -0.251453 5.382308 0.315319
v 0.089746 5.382308 0.393194
v -0.089746 5.382308 0.393194
v 0.251453 5.382308 0.315319
v 0.403313 5.382308 0.000001
v 0.715214 0.165698 -0.344429
v 0.793836 0.165698 0.000000
v 0.494940 0.165698 -0.620645
v 0.176650 0.165698 -0.773925
v -0.176650 0.165698 -0.773925
v -0.494940 0.165698 -0.620645
v -0.715214 0.165698 -0.344429
v -0.793836 0.165698 0.000000
v -0.715214 0.165698 0.344429
v -0.494940 0.165698 0.620645
v -0.176650 0.165697 0.773925
v 0.176650 0.165697 0.773925
v 0.494940 0.165698 0.620645
v 0.715214 0.165698 0.344429
v 0.492456 0.565264 0.000000
v 0.443693 0.565264 -0.213671
v 0.443693 5.295390 -0.213671
v 0.492456 5.295390 0.000001
v 0.307049 0.565264 -0.385025
v 0.307049 5.295390 -0.385024
v 0.109585 0.565264 -0.480111
v 0.109585 5.295390 -0.480110
v -0.109585 0.565264 -0.480111
v -0.109585 5.295390 -0.480110
v -0.307049 0.565264 -0.385025
v -0.307049 5.295390 -0.385024
v -0.443693 0.565264 -0.213671
v -0.443693 5.295390 -0.213671
v -0.492456 0.565264 0.000000
v -0.492456 5.295390 0.000001
v -0.443693 0.565264 0.213671
v -0.443693 5.295390 0.213672
v -0.307049 0.565264 0.385025
v -0.307049 5.295390 0.385026
v -0.109585 0.565264 0.480111
v -0.109585 5.295390 0.480112
v 0.109585 0.565264 0.480111
v 0.109585 5.295390 0.480112
v 0.307049 0.565264 0.385025
v 0.307049 5.295390 0.385026
v 0.443693 0.565264 0.213671
v 0.443693 5.295390 0.213672
v 0.407993 5.372648 -0.196473
v 0.452837 5.372648 0.000001
v 0.282345 5.372648 -0.354046
v 0.100771 5.372648 -0.441481
v -0.100771 5.372648 -0.441481
v -0.282345 5.372648 -0.354046
v -0.407993 5.372648 -0.196473
v -0.452837 5.372648 0.000001
v -0.407993 5.372648 0.196475
v -0.282345 5.372648 0.354048
v -0.100771 5.372648 0.441483
v 0.100771 5.372648 0.441483
v 0.282345 5.372648 0.354048
v 0.407993 5.372648 0.196475
v 0.434764 5.343680 -0.209378
v 0.482551 5.343680 0.000001
v 0.300863 5.343680 -0.377272
v 0.107374 5.343680 -0.470464
v -0.107374 5.343680 -0.470464
v -0.300863 5.343680 -0.377272
v -0.434764 5.343680 -0.209378
v -0.482551 5.343680 0.000001
v -0.434764 5.343680 0.209380
v -0.300863 5.343680 0.377274
v -0.107374 5.343680 0.470466
v 0.107374 5.343680 0.470466
v 0.300863 5.343680 0.377274
v 0.434764 5.343680 0.209380
v 0.473867 0.381565 -0.228198
v 0.525946 0.381565 0.000000
v 0.327921 0.381565 -0.411208
v 0.117035 0.381565 -0.512768
v -0.117035 0.381565 -0.512768
v -0.327921 0.381565 -0.411208
v -0.473867 0.381565 -0.228198
v -0.525946 0.381565 0.000000
v -0.473867 0.381565 0.228199
v -0.327921 0.381565 0.411208
v -0.117035 0.381565 0.512768
v 0.117035 0.381565 0.512768
v 0.327921 0.381565 0.411208
v 0.473867 0.381565 0.228199
v 0.564374 0.248381 -0.271780
v 0.626401 0.248381 0.000000
v 0.390551 0.248381 -0.489743
v 0.139385 0.248381 -0.610697
v -0.139385 0.248381 -0.610697
v -0.390551 0.248381 -0.489743
v -0.564374 0.248381 -0.271780
v -0.626401 0.248381 0.000000
v -0.564374 0.248381 0.271780
v -0.390551 0.248381 0.489743
v -0.139385 0.248381 0.610697
v 0.139385 0.248381 0.610697
v 0.390551 0.248381 0.489743
v 0.564374 0.248381 0.271780
vt 0.4508 0.6329
vt 0.4753 0.6966
vt 0.4733 0.6971
vt 0.4488 0.6337
vt 0.4831 0.7612
vt 0.4810 0.7612
vt 0.4743 0.8263
vt 0.4723 0.8256
vt 0.4450 0.8858
vt 0.4433 0.8846
vt 0.3996 0.9345
vt 0.3982 0.9328
vt 0.3424 0.9702
vt 0.3415 0.9681
vt 0.2760 0.9880
vt 0.2758 0.9858
vt 0.2063 0.9837
vt 0.2068 0.9815
vt 0.1404 0.9590
vt 0.1415 0.9569
vt 0.0826 0.9174
vt 0.0843 0.9157
vt 0.0406 0.8588
vt 0.0427 0.8577
vt 0.0174 0.7901
vt 0.0198 0.7897
vt 0.0129 0.7163
vt 0.0153 0.7165
vt 0.0287 0.6391
vt 0.0313 0.6396
vt 0.8640 0.8230
vt 0.8287 0.8674
vt 0.7775 0.8920
vt 0.8640 0.7123
vt 0.7208 0.8920
vt 0.6696 0.8674
vt 0.6216 0.7677
vt 0.6343 0.8230
vt 0.6343 0.7123
vt 0.6696 0.6680
vt 0.7775 0.6433
vt 0.7208 0.6433
vt 0.8287 0.6680
vt 0.8767 0.7677
vt 0.4271 0.7101
vt 0.4051 0.6633
vt 0.4341 0.7606
vt 0.4254 0.8110
vt 0.4031 0.8572
vt 0.3679 0.8956
vt 0.3224 0.9221
vt 0.2709 0.9343
vt 0.2173 0.9313
vt 0.1659 0.9124
vt 0.1223 0.8783
vt 0.0896 0.8333
vt 0.0710 0.7799
vt 0.0694 0.7225
vt 0.0859 0.6659
vt 0.0517 0.6224
vt 0.0494 0.5797
vt 0.9827 0.5750
vt 0.9829 0.6176
vt 0.0485 0.5364
vt 0.9825 0.5323
vt 0.0480 0.4929
vt 0.9824 0.4897
vt 0.0479 0.4491
vt 0.9822 0.4470
vt 0.0475 0.4054
vt 0.9822 0.4044
vt 0.0472 0.3621
vt 0.9821 0.3617
vt 0.0476 0.3187
vt 0.9821 0.3191
vt 0.0471 0.2754
vt 0.9822 0.2764
vt 0.0473 0.2321
vt 0.9823 0.2337
vt 0.0475 0.1886
vt 0.9824 0.1911
vt 0.0480 0.1448
vt 0.9825 0.1484
vt 0.0482 0.1011
vt 0.9827 0.1057
vt 0.0491 0.0577
vt 0.9829 0.0631
vt 0.0514 0.0150
vt 0.9831 0.0199
vt 0.9479 0.7080
vt 0.9335 0.7101
vt 0.9181 0.6590
vt 0.9314 0.6516
vt 0.9479 0.7652
vt 0.9334 0.7631
vt 0.9316 0.8205
vt 0.9185 0.8144
vt 0.9003 0.8692
vt 0.8892 0.8596
vt 0.8566 0.9070
vt 0.8486 0.8947
vt 0.8046 0.9307
vt 0.8004 0.9169
vt 0.7486 0.9392
vt 0.7485 0.9246
vt 0.6924 0.9320
vt 0.6963 0.9180
vt 0.6400 0.9093
vt 0.6477 0.8969
vt 0.5957 0.8725
vt 0.6064 0.8628
vt 0.5633 0.8243
vt 0.5766 0.8179
vt 0.5460 0.7692
vt 0.5604 0.7667
vt 0.5447 0.7119
vt 0.5592 0.7136
vt 0.5600 0.6550
vt 0.5735 0.6621
vt 0.9597 0.7065
vt 0.9427 0.6463
vt 0.9739 0.7044
vt 0.9566 0.6418
vt 0.9598 0.7670
vt 0.9743 0.7689
vt 0.9426 0.8256
vt 0.9564 0.8318
vt 0.9096 0.8773
vt 0.9206 0.8871
vt 0.8631 0.9171
vt 0.8709 0.9295
vt 0.8080 0.9422
vt 0.8120 0.9561
vt 0.7487 0.9510
vt 0.7489 0.9651
vt 0.6892 0.9434
vt 0.6856 0.9574
vt 0.6336 0.9196
vt 0.6261 0.9322
vt 0.5866 0.8806
vt 0.5754 0.8907
vt 0.5522 0.8296
vt 0.5388 0.8359
vt 0.5341 0.7711
vt 0.5196 0.7733
vt 0.5328 0.7105
vt 0.5186 0.7087
vt 0.5486 0.6499
vt 0.5346 0.6457
vt 0.0137 0.5813
vt 0.0163 0.6259
vt 0.0124 0.5374
vt 0.0117 0.4934
vt 0.0113 0.4493
vt 0.0115 0.4053
vt 0.0118 0.3620
vt 0.0116 0.3187
vt 0.0118 0.2754
vt 0.0116 0.2323
vt 0.0114 0.1887
vt 0.0113 0.1445
vt 0.0120 0.1002
vt 0.0133 0.0561
vt 0.0159 0.0115
vt 0.4008 0.7180
vt 0.3765 0.7247
vt 0.3623 0.6930
vt 0.3831 0.6799
vt 0.4062 0.7602
vt 0.3807 0.7597
vt 0.3994 0.8027
vt 0.3749 0.7949
vt 0.3799 0.8415
vt 0.3588 0.8268
vt 0.3499 0.8731
vt 0.3338 0.8529
vt 0.3121 0.8955
vt 0.3023 0.8711
vt 0.2686 0.9059
vt 0.2665 0.8795
vt 0.2233 0.9025
vt 0.2295 0.8763
vt 0.1806 0.8860
vt 0.1942 0.8621
vt 0.1435 0.8577
vt 0.1636 0.8384
vt 0.1165 0.8192
vt 0.1414 0.8066
vt 0.1017 0.7743
vt 0.1293 0.7694
vt 0.1001 0.7267
vt 0.1282 0.7301
vt 0.1135 0.6809
vt 0.1389 0.6922
vn 1.0000 0.0000 0.0000
vn 0.9009 0.0000 -0.4339
vn 0.7797 0.5010 -0.3755
vn 0.8654 0.5010 0.0000
vn 0.6235 0.0000 -0.7818
vn 0.5396 0.5010 -0.6766
vn 0.2225 0.0000 -0.9749
vn 0.1926 0.5010 -0.8437
vn -0.2225 0.0000 -0.9749
vn -0.1926 0.5010 -0.8437
vn -0.6235 0.0000 -0.7818
vn -0.5396 0.5010 -0.6766
vn -0.9009 0.0000 -0.4339
vn -0.7797 0.5010 -0.3755
vn -1.0000 0.0000 0.0000
vn -0.8654 0.5010 0.0000
vn -0.9009 0.0000 0.4339
vn -0.7797 0.5010 0.3755
vn -0.6235 0.0000 0.7818
vn -0.5396 0.5010 0.6766
vn -0.2225 0.0000 0.9749
vn -0.1926 0.5010 0.8437
vn 0.2225 0.0000 0.9749
vn 0.1926 0.5010 0.8437
vn 0.6235 0.0000 0.7818
vn 0.5396 0.5010 0.6766
vn 0.9009 0.0000 0.4339
vn 0.7797 0.5010 0.3755
vn 0.0988 0.9940 -0.0476
vn 0.0684 0.9940 -0.0858
vn 0.0244 0.9940 -0.1070
vn 0.0988 0.9940 0.0476
vn -0.0244 0.9940 -0.1070
vn -0.0684 0.9940 -0.0858
vn -0.1097 0.9940 0.0000
vn -0.0988 0.9940 -0.0476
vn -0.0988 0.9940 0.0476
vn -0.0684 0.9940 0.0858
vn 0.0244 0.9940 0.1070
vn -0.0244 0.9940 0.1070
vn 0.0684 0.9940 0.0858
vn 0.1097 0.9940 0.0000
vn 0.3940 0.8993 -0.1897
vn 0.4373 0.8993 0.0000
vn 0.2726 0.8993 -0.3419
vn 0.0973 0.8993 -0.4263
vn -0.0973 0.8993 -0.4263
vn -0.2726 0.8993 -0.3419
vn -0.3940 0.8993 -0.1897
vn -0.4373 0.8993 0.0000
vn -0.3940 0.8993 0.1897
vn -0.2726 0.8993 0.3419
vn -0.0973 0.8993 0.4263
vn 0.0973 0.8993 0.4263
vn 0.2726 0.8993 0.3419
vn 0.3940 0.8993 0.1897
vn 0.9958 0.0912 0.0000
vn 0.8972 0.0912 -0.4321
vn 0.8965 0.0996 -0.4317
vn 0.9950 0.0996 0.0000
vn 0.6209 0.0912 -0.7786
vn 0.6204 0.0996 -0.7779
vn 0.2216 0.0912 -0.9709
vn 0.2214 0.0995 -0.9701
vn -0.2216 0.0912 -0.9709
vn -0.2214 0.0995 -0.9701
vn -0.6209 0.0912 -0.7786
vn -0.6204 0.0996 -0.7779
vn -0.8972 0.0912 -0.4321
vn -0.8965 0.0996 -0.4317
vn -0.9958 0.0912 0.0000
vn -0.9950 0.0996 0.0000
vn -0.8972 0.0912 0.4321
vn -0.8965 0.0996 0.4317
vn -0.6209 0.0912 0.7786
vn -0.6204 0.0996 0.7779
vn -0.2216 0.0912 0.9709
vn -0.2214 0.0995 0.9701
vn 0.2216 0.0912 0.9709
vn 0.2214 0.0995 0.9701
vn 0.6209 0.0912 0.7786
vn 0.6204 0.0996 0.7779
vn 0.8972 0.0912 0.4321
vn 0.8965 0.0996 0.4317
vn 0.4459 0.8689 -0.2147
vn 0.4949 0.8689 0.0000
vn 0.3086 0.8689 -0.3869
vn 0.1101 0.8690 -0.4824
vn -0.1101 0.8690 -0.4824
vn -0.3086 0.8689 -0.3869
vn -0.4459 0.8689 -0.2147
vn -0.4949 0.8689 0.0000
vn -0.4459 0.8689 0.2147
vn -0.3086 0.8689 0.3869
vn -0.1101 0.8690 0.4824
vn 0.1101 0.8690 0.4824
vn 0.3086 0.8689 0.3869
vn 0.4459 0.8689 0.2147
vn 0.7986 0.4629 -0.3846
vn 0.8864 0.4629 0.0000
vn 0.5526 0.4629 -0.6930
vn 0.1972 0.4629 -0.8642
vn -0.1972 0.4629 -0.8642
vn -0.5526 0.4629 -0.6930
vn -0.7986 0.4629 -0.3846
vn -0.8864 0.4629 0.0000
vn -0.7986 0.4629 0.3846
vn -0.5526 0.4629 0.6930
vn -0.1972 0.4629 0.8642
vn 0.1972 0.4629 0.8642
vn 0.5526 0.4629 0.6930
vn 0.7986 0.4629 0.3846
vn 0.8201 0.4141 -0.3949
vn 0.9102 0.4141 0.0000
vn 0.5675 0.4141 -0.7116
vn 0.2025 0.4141 -0.8874
vn -0.2025 0.4141 -0.8874
vn -0.5675 0.4141 -0.7116
vn -0.8201 0.4141 -0.3949
vn -0.9102 0.4141 0.0000
vn -0.8201 0.4141 0.3949
vn -0.5675 0.4141 0.7116
vn -0.2025 0.4141 0.8874
vn 0.2025 0.4141 0.8874
vn 0.5675 0.4141 0.7116
vn 0.8201 0.4141 0.3949
vn 0.5563 0.7866 -0.2679
vn 0.6175 0.7866 0.0000
vn 0.3850 0.7866 -0.4828
vn 0.1374 0.7866 -0.6020
vn -0.1374 0.7866 -0.6020
vn -0.3850 0.7866 -0.4828
vn -0.5563 0.7866 -0.2679
vn -0.6175 0.7866 0.0000
vn -0.5563 0.7866 0.2679
vn -0.3850 0.7866 0.4828
vn -0.1374 0.7866 0.6020
vn 0.1374 0.7866 0.6020
vn 0.3850 0.7866 0.4828
vn 0.5563 0.7866 0.2679
s 1
f 1/1/1 2/2/2 3/3/3 4/4/4
f 2/2/2 5/5/5 6/6/6 3/3/3
f 5/5/5 7/7/7 8/8/8 6/6/6
f 7/7/7 9/9/9 10/10/10 8/8/8
f 9/9/9 11/11/11 12/12/12 10/10/10
f 11/11/11 13/13/13 14/14/14 12/12/12
f 13/13/13 15/15/15 16/16/16 14/14/14
f 15/15/15 17/17/17 18/18/18 16/16/16
f 17/17/17 19/19/19 20/20/20 18/18/18
f 19/19/19 21/21/21 22/22/22 20/20/20
f 21/21/21 23/23/23 24/24/24 22/22/22
f 23/23/23 25/25/25 26/26/26 24/24/24
f 25/25/25 27/27/27 28/28/28 26/26/26
f 27/27/27 1/29/1 4/30/4 28/28/28
f 29/31/29 30/32/30 31/33/31 32/34/32
f 31/33/31 33/35/33 34/36/34 35/37/35
f 34/36/34 36/38/36 35/37/35
f 35/37/35 37/39/37 38/40/38 39/41/39
f 38/40/38 40/42/40 39/41/39
f 39/41/39 41/43/41 32/34/32 35/37/35
f 31/33/31 35/37/35 32/34/32
f 42/44/42 29/31/29 32/34/32
f 4/4/4 3/3/3 43/45/43 44/46/44
f 3/3/3 6/6/6 45/47/45 43/45/43
f 6/6/6 8/8/8 46/48/46 45/47/45
f 8/8/8 10/10/10 47/49/47 46/48/46
f 10/10/10 12/12/12 48/50/48 47/49/47
f 12/12/12 14/14/14 49/51/49 48/50/48
f 14/14/14 16/16/16 50/52/50 49/51/49
f 16/16/16 18/18/18 51/53/51 50/52/50
f 18/18/18 20/20/20 52/54/52 51/53/51
f 20/20/20 22/22/22 53/55/53 52/54/52
f 22/22/22 24/24/24 54/56/54 53/55/53
f 24/24/24 26/26/26 55/57/55 54/56/54
f 26/26/26 28/28/28 56/58/56 55/57/55
f 28/28/28 4/30/4 44/59/44 56/58/56
f 57/60/57 58/61/58 59/62/59 60/63/60
f 58/61/58 61/64/61 62/65/62 59/62/59
f 61/64/61 63/66/63 64/67/64 62/65/62
f 63/66/63 65/68/65 66/69/66 64/67/64
f 65/68/65 67/70/67 68/71/68 66/69/66
f 67/70/67 69/72/69 70/73/70 68/71/68
f 69/72/69 71/74/71 72/75/72 70/73/70
f 71/74/71 73/76/73 74/77/74 72/75/72
f 73/76/73 75/78/75 76/79/76 74/77/74
f 75/78/75 77/80/77 78/81/78 76/79/76
f 77/80/77 79/82/79 80/83/80 78/81/78
f 79/82/79 81/84/81 82/85/82 80/83/80
f 81/84/81 83/86/83 84/87/84 82/85/82
f 83/86/83 57/88/57 60/89/60 84/87/84
f 85/90/85 29/91/29 42/92/42 86/93/86
f 87/94/87 30/95/30 29/91/29 85/90/85
f 88/96/88 31/97/31 30/95/30 87/94/87
f 89/98/89 33/99/33 31/97/31 88/96/88
f 90/100/90 34/101/34 33/99/33 89/98/89
f 91/102/91 36/103/36 34/101/34 90/100/90
f 92/104/92 35/105/35 36/103/36 91/102/91
f 93/106/93 37/107/37 35/105/35 92/104/92
f 94/108/94 38/109/38 37/107/37 93/106/93
f 95/110/95 40/111/40 38/109/38 94/108/94
f 96/112/96 39/113/39 40/111/40 95/110/95
f 97/114/97 41/115/41 39/113/39 96/112/96
f 98/116/98 32/117/32 41/115/41 97/114/97
f 86/118/86 42/119/42 32/117/32 98/116/98
f 99/120/99 85/90/85 86/93/86 100/121/100
f 59/122/59 99/120/99 100/121/100 60/123/60
f 101/124/101 87/94/87 85/90/85 99/120/99
f 62/125/62 101/124/101 99/120/99 59/122/59
f 102/126/102 88/96/88 87/94/87 101/124/101
f 64/127/64 102/126/102 101/124/101 62/125/62
f 103/128/103 89/98/89 88/96/88 102/126/102
f 66/129/66 103/128/103 102/126/102 64/127/64
f 104/130/104 90/100/90 89/98/89 103/128/103
f 68/131/68 104/130/104 103/128/103 66/129/66
f 105/132/105 91/102/91 90/100/90 104/130/104
f 70/133/70 105/132/105 104/130/104 68/131/68
f 106/134/106 92/104/92 91/102/91 105/132/105
f 72/135/72 106/134/106 105/132/105 70/133/70
f 107/136/107 93/106/93 92/104/92 106/134/106
f 74/137/74 107/136/107 106/134/106 72/135/72
f 108/138/108 94/108/94 93/106/93 107/136/107
f 76/139/76 108/138/108 107/136/107 74/137/74
f 109/140/109 95/110/95 94/108/94 108/138/108
f 78/141/78 109/140/109 108/138/108 76/139/76
f 110/142/110 96/112/96 95/110/95 109/140/109
f 80/143/80 110/142/110 109/140/109 78/141/78
f 111/144/111 97/114/97 96/112/96 110/142/110
f 82/145/82 111/144/111 110/142/110 80/143/80
f 112/146/112 98/116/98 97/114/97 111/144/111
f 84/147/84 112/146/112 111/144/111 82/145/82
f 100/148/100 86/118/86 98/116/98 112/146/112
f 60/149/60 100/148/100 112/146/112 84/147/84
f 113/150/113 58/61/58 57/60/57 114/151/114
f 115/152/115 61/64/61 58/61/58 113/150/113
f 116/153/116 63/66/63 61/64/61 115/152/115
f 117/154/117 65/68/65 63/66/63 116/153/116
f 118/155/118 67/70/67 65/68/65 117/154/117
f 119/156/119 69/72/69 67/70/67 118/155/118
f 120/157/120 71/74/71 69/72/69 119/156/119
f 121/158/121 73/76/73 71/74/71 120/157/120
f 122/159/122 75/78/75 73/76/73 121/158/121
f 123/160/123 77/80/77 75/78/75 122/159/122
f 124/161/124 79/82/79 77/80/77 123/160/123
f 125/162/125 81/84/81 79/82/79 124/161/124
f 126/163/126 83/86/83 81/84/81 125/162/125
f 114/164/114 57/88/57 83/86/83 126/163/126
f 127/165/127 113/166/113 114/167/114 128/168/128
f 43/45/43 127/165/127 128/168/128 44/46/44
f 129/169/129 115/170/115 113/166/113 127/165/127
f 45/47/45 129/169/129 127/165/127 43/45/43
f 130/171/130 116/172/116 115/170/115 129/169/129
f 46/48/46 130/171/130 129/169/129 45/47/45
f 131/173/131 117/174/117 116/172/116 130/171/130
f 47/49/47 131/173/131 130/171/130 46/48/46
f 132/175/132 118/176/118 117/174/117 131/173/131
f 48/50/48 132/175/132 131/173/131 47/49/47
f 133/177/133 119/178/119 118/176/118 132/175/132
f 49/51/49 133/177/133 132/175/132 48/50/48
f 134/179/134 120/180/120 119/178/119 133/177/133
f 50/52/50 134/179/134 133/177/133 49/51/49
f 135/181/135 121/182/121 120/180/120 134/179/134
f 51/53/51 135/181/135 134/179/134 50/52/50
f 136/183/136 122/184/122 121/182/121 135/181/135
f 52/54/52 136/183/136 135/181/135 51/53/51
f 137/185/137 123/186/123 122/184/122 136/183/136
f 53/55/53 137/185/137 136/183/136 52/54/52
f 138/187/138 124/188/124 123/186/123 137/185/137
f 54/56/54 138/187/138 137/185/137 53/55/53
f 139/189/139 125/190/125 124/188/124 138/187/138
f 55/57/55 139/189/139 138/187/138 54/56/54
f 140/191/140 126/192/126 125/190/125 139/189/139
f 56/58/56 140/191/140 139/189/139 55/57/55
f 128/193/128 114/194/114 126/192/126 140/191/140
f 44/59/44 128/193/128 140/191/140 56/58/56
