# 3ds Max Wavefront OBJ Exporter v0.97b - (c)2007 guruware
# File Created: 05.11.2016 16:01:13

mtllib box2-1.mtl

#
# object Mesh
#

v  -1.8600 0.0000 -3.7200
v  -1.8600 0.1800 -3.7200
v  1.8600 0.1800 -3.7200
v  1.8600 0.0000 -3.7200
v  -1.7000 0.1800 -3.5600
v  1.7000 0.1800 -3.5600
v  -1.7000 0.1800 3.5600
v  -1.8600 0.1800 3.7200
v  1.8600 0.1800 3.7200
v  1.7000 0.1800 3.5600
v  1.8600 0.0000 3.7200
v  -1.8600 0.0000 3.7200
v  -1.5700 0.0000 3.4300
v  1.5700 0.0000 3.4300
v  -1.5700 0.0000 -3.4300
v  -1.5700 0.0550 -3.4300
v  -1.5700 0.0550 3.4300
v  1.5700 0.0000 -3.4300
v  1.5700 0.0550 -3.4300
v  1.5700 0.0550 3.4300
v  1.8050 0.1800 3.4300
v  1.7500 0.1800 3.4300
v  1.7500 3.3200 3.4300
v  1.8050 3.3200 3.4300
v  1.8050 3.3200 3.6650
v  1.8050 0.1800 3.6650
v  1.5700 0.1800 3.6650
v  1.5700 3.3200 3.6650
v  1.5700 3.3200 3.6100
v  1.5700 0.1800 3.6100
v  -1.5700 0.1800 3.6100
v  -1.5700 3.3200 3.6100
v  -1.5700 3.3200 3.6650
v  -1.5700 0.1800 3.6650
v  -1.8050 0.1800 3.6650
v  -1.8050 3.3200 3.6650
v  -1.8050 3.3200 3.4300
v  -1.8050 0.1800 3.4300
v  -1.7500 0.1800 3.4300
v  -1.7500 3.3200 3.4300
v  -1.7500 3.3200 -3.4300
v  -1.7500 0.1800 -3.4300
v  -1.8050 0.1800 -3.4300
v  -1.8050 3.3200 -3.4300
v  -1.8050 3.3200 -3.6650
v  -1.8050 0.1800 -3.6650
v  -1.5700 0.1800 -3.6650
v  -1.5700 3.3200 -3.6650
v  -1.5700 3.3200 -3.6100
v  -1.5700 0.1800 -3.6100
v  1.5700 0.1800 -3.6100
v  1.5700 3.3200 -3.6100
v  1.5700 3.3200 -3.6650
v  1.5700 0.1800 -3.6650
v  1.8050 0.1800 -3.6650
v  1.8050 3.3200 -3.6650
v  1.8050 3.3200 -3.4300
v  1.8050 0.1800 -3.4300
v  1.7500 0.1800 -3.4300
v  1.7500 3.3200 -3.4300
v  1.8600 3.3200 -3.7200
v  -1.8600 3.3200 -3.7200
v  -1.8600 3.5000 -3.7200
v  1.8600 3.5000 -3.7200
v  -1.5700 3.5000 -3.4300
v  1.5700 3.5000 -3.4300
v  -1.5700 3.4450 -3.4300
v  1.5700 3.4450 -3.4300
v  1.5700 3.4450 3.4300
v  -1.5700 3.4450 3.4300
v  -1.5700 3.5000 3.4300
v  -1.8600 3.5000 3.7200
v  -1.8600 3.3200 3.7200
v  -1.7000 3.3200 3.5600
v  -1.7000 3.3200 -3.5600
v  1.7000 3.3200 -3.5600
v  1.8600 3.3200 3.7200
v  1.7000 3.3200 3.5600
v  1.8600 3.5000 3.7200
v  1.5700 3.5000 3.4300
# 80 vertices

vn 0.0000 0.0000 -1.0000
vn 0.0000 1.0000 -0.0000
vn 0.0000 0.0000 1.0000
vn 0.0000 -1.0000 -0.0000
vn -1.0000 0.0000 -0.0000
vn 1.0000 0.0000 -0.0000
# 6 vertex normals

vt 0.5439 0.5918 0.0000
vt 0.5439 0.5849 0.0000
vt 0.6871 0.5849 0.0000
vt 0.6871 0.5918 0.0000
vt 0.5500 0.5787 0.0000
vt 0.6810 0.5787 0.0000
vt 0.4214 0.7075 0.0000
vt 0.6956 0.7075 0.0000
vt 0.7017 0.7136 0.0000
vt 0.4152 0.7137 0.0000
vt 0.4090 0.7075 0.0000
vt 0.2719 0.7136 0.0000
vt 0.2781 0.7075 0.0000
vt 0.2719 0.7205 0.0000
vt 0.4152 0.7206 0.0000
vt 0.4040 0.7317 0.0000
vt 0.2831 0.7317 0.0000
vt 0.4264 0.7317 0.0000
vt 0.7017 0.7205 0.0000
vt 0.6905 0.7317 0.0000
vt 0.5716 0.9653 0.0000
vt 0.8358 0.9653 0.0000
vt 0.8358 0.9674 0.0000
vt 0.5716 0.9674 0.0000
vt 0.5702 0.8563 0.0000
vt 0.5702 0.8542 0.0000
vt 0.6911 0.8542 0.0000
vt 0.6911 0.8564 0.0000
vt 0.6760 0.6030 0.0000
vt 0.5550 0.6030 0.0000
vt 0.9736 0.5918 0.0000
vt 0.9736 0.5849 0.0000
vt 0.6933 0.5787 0.0000
vt 0.9675 0.5787 0.0000
vt 0.6983 0.6030 0.0000
vt 0.9625 0.6030 0.0000
vt 0.9552 0.8542 0.0000
vt 0.9552 0.8564 0.0000
vt 0.4507 0.9674 0.0000
vt 0.4507 0.9653 0.0000
vt 0.5808 0.3783 0.0000
vt 0.5808 0.2573 0.0000
vt 0.8450 0.2573 0.0000
vt 0.8450 0.3783 0.0000
vt 0.8596 0.1209 0.0000
vt 0.8574 0.1209 0.0000
vt 0.8574 0.0000 0.0000
vt 0.8596 0.0000 0.0000
vt 0.0000 0.1209 0.0000
vt 0.0000 0.0000 0.0000
vt 0.0090 0.0000 0.0000
vt 0.0090 0.1209 0.0000
vt 0.0181 0.1209 0.0000
vt 0.0181 0.0000 0.0000
vt 0.0202 0.0000 0.0000
vt 0.0202 0.1209 0.0000
vt 0.1411 0.1209 0.0000
vt 0.1411 0.0000 0.0000
vt 0.1433 0.0000 0.0000
vt 0.1433 0.1209 0.0000
vt 0.1523 0.1209 0.0000
vt 0.1523 0.0000 0.0000
vt 0.1614 0.0000 0.0000
vt 0.1614 0.1209 0.0000
vt 0.1635 0.1209 0.0000
vt 0.1635 0.0000 0.0000
vt 0.4277 0.0000 0.0000
vt 0.4277 0.1209 0.0000
vt 0.4298 0.1209 0.0000
vt 0.4298 0.0000 0.0000
vt 0.4388 0.0000 0.0000
vt 0.4388 0.1209 0.0000
vt 0.4479 0.1209 0.0000
vt 0.4479 0.0000 0.0000
vt 0.4500 0.0000 0.0000
vt 0.4500 0.1209 0.0000
vt 0.5709 0.1209 0.0000
vt 0.5709 0.0000 0.0000
vt 0.5730 0.0000 0.0000
vt 0.5730 0.1209 0.0000
vt 0.5821 0.1209 0.0000
vt 0.5821 0.0000 0.0000
vt 0.5911 0.0000 0.0000
vt 0.5911 0.1209 0.0000
vt 0.5933 0.1209 0.0000
vt 0.5933 0.0000 0.0000
vt 0.5439 0.6169 0.0000
vt 0.6871 0.6169 0.0000
vt 0.6871 0.6238 0.0000
vt 0.5439 0.6238 0.0000
vt 0.6760 0.6350 0.0000
vt 0.5550 0.6350 0.0000
vt 0.4507 0.9850 0.0000
vt 0.5716 0.9850 0.0000
vt 0.5716 0.9871 0.0000
vt 0.4507 0.9871 0.0000
vt 0.0000 0.6434 0.0000
vt 0.2642 0.6434 0.0000
vt 0.2642 0.7643 0.0000
vt 0.0000 0.7643 0.0000
vt 0.8359 0.9850 0.0000
vt 0.8359 0.9871 0.0000
vt 0.9625 0.6350 0.0000
vt 0.6983 0.6350 0.0000
vt 0.9736 0.6238 0.0000
vt 0.9736 0.6169 0.0000
vt 0.9675 0.6107 0.0000
vt 0.6933 0.6107 0.0000
vt 0.6810 0.6107 0.0000
vt 0.5500 0.6107 0.0000
vt 0.5500 0.5710 0.0000
vt 0.5439 0.5648 0.0000
vt 0.8304 0.5648 0.0000
vt 0.8242 0.5710 0.0000
vt 0.9675 0.5710 0.0000
vt 0.8366 0.5710 0.0000
vt 0.9737 0.5648 0.0000
vt 0.8304 0.5579 0.0000
vt 0.9737 0.5579 0.0000
vt 0.9625 0.5467 0.0000
vt 0.8416 0.5467 0.0000
vt 0.5550 0.5467 0.0000
vt 0.8192 0.5467 0.0000
vt 0.5439 0.5579 0.0000
vt 0.5716 0.9970 0.0000
vt 0.5716 0.9949 0.0000
vt 0.8358 0.9949 0.0000
vt 0.8358 0.9970 0.0000
vt 0.4507 0.9949 0.0000
vt 0.4507 0.9970 0.0000
# 130 texture coords

g Mesh
usemtl Default
f 1/1/1 2/2/1 3/3/1 4/4/1 
f 3/3/2 2/2/2 5/5/2 6/6/2 
f 7/7/2 5/8/2 2/9/2 8/10/2 
f 7/11/2 8/10/2 9/12/2 10/13/2 
f 11/14/3 9/12/3 8/10/3 12/15/3 
f 11/14/4 12/15/4 13/16/4 14/17/4 
f 13/18/4 12/15/4 1/19/4 15/20/4 
f 1/19/5 12/15/5 8/10/5 2/9/5 
f 13/21/6 15/22/6 16/23/6 17/24/6 
f 16/25/3 15/26/3 18/27/3 19/28/3 
f 4/4/4 18/29/4 15/30/4 1/1/4 
f 11/31/6 4/4/6 3/3/6 9/32/6 
f 9/32/2 3/3/2 6/33/2 10/34/2 
f 18/35/4 4/4/4 11/31/4 14/36/4 
f 18/27/5 14/37/5 20/38/5 19/28/5 
f 20/39/1 14/40/1 13/21/1 17/24/1 
usemtl plank
f 20/41/4 17/42/4 16/43/4 19/44/4 
usemtl pillar
f 21/45/1 22/46/1 23/47/1 24/48/1 
f 21/49/6 24/50/6 25/51/6 26/52/6 
f 27/53/3 26/52/3 25/51/3 28/54/3 
f 27/53/5 28/54/5 29/55/5 30/56/5 
usemtl plank
f 31/57/3 30/56/3 29/55/3 32/58/3 
usemtl pillar
f 31/57/6 32/58/6 33/59/6 34/60/6 
f 35/61/3 34/60/3 33/59/3 36/62/3 
f 35/61/5 36/62/5 37/63/5 38/64/5 
f 39/65/1 38/64/1 37/63/1 40/66/1 
usemtl plank
f 39/65/5 40/66/5 41/67/5 42/68/5 
usemtl pillar
f 43/69/3 42/68/3 41/67/3 44/70/3 
f 43/69/5 44/70/5 45/71/5 46/72/5 
f 47/73/1 46/72/1 45/71/1 48/74/1 
f 47/73/6 48/74/6 49/75/6 50/76/6 
usemtl plank
f 51/77/1 50/76/1 49/75/1 52/78/1 
usemtl pillar
f 51/77/5 52/78/5 53/79/5 54/80/5 
f 55/81/1 54/80/1 53/79/1 56/82/1 
f 55/81/6 56/82/6 57/83/6 58/84/6 
f 59/85/3 58/84/3 57/83/3 60/86/3 
usemtl plank
f 59/85/6 60/86/6 23/47/6 22/46/6 
usemtl Default
f 61/87/1 62/88/1 63/89/1 64/90/1 
f 64/90/2 63/89/2 65/91/2 66/92/2 
f 66/93/3 65/94/3 67/95/3 68/96/3 
usemtl plank
f 69/97/2 68/98/2 67/99/2 70/100/2 
usemtl Default
f 71/101/6 70/102/6 67/95/6 65/94/6 
f 71/103/2 65/104/2 63/89/2 72/105/2 
f 73/106/5 72/105/5 63/89/5 62/88/5 
f 74/107/4 73/106/4 62/88/4 75/108/4 
f 75/109/4 62/88/4 61/87/4 76/110/4 
f 76/111/4 61/112/4 77/113/4 78/114/4 
f 74/115/4 78/116/4 77/113/4 73/117/4 
f 73/117/3 77/113/3 79/118/3 72/119/3 
f 71/120/2 72/119/2 79/118/2 80/121/2 
f 66/122/2 80/123/2 79/118/2 64/124/2 
f 61/112/6 64/124/6 79/118/6 77/113/6 
f 69/125/5 80/126/5 66/127/5 68/128/5 
f 71/129/1 80/126/1 69/125/1 70/130/1 
# 54 polygons

